# xmcd
#
# Track frame offsets: 
#        150
#        16985
#        52379
#        68607
#        85202
#        98590
#        112648
#        129733
#        150025
#        166994
#        183288
#        201676
#        217695
#        232961
#
# Disc length: 3213 seconds
#
# Revision: 0
# Processed by: cddbd v1.5.2PL0 Copyright (c) Steve Scherf et al.
# Submitted via: ExactAudioCopy v0.95a5
#
DISCID=aa0c8b0e
DTITLE=Various Artist - BLUE SAX! LIVE! SEASON 2009 - 10 cd2 Rock
DYEAR=2011
DGENRE=Blues
TTITLE0=Picksiebner - Lincoln Town
TTITLE1=Barber Shop - Love Like A Man
TTITLE2=Zdenka Kovacicek - Try (Just A Little Bit Harder)
TTITLE3=Art Forenziks - Sweet Virginia
TTITLE4=Bacon and Blues Company - Thunderbird
TTITLE5=Bluesville - Bye Bye Baby
TTITLE6=Blues of Taste - Eat My Words
TTITLE7=Blue Point - Chevrolet
TTITLE8=The Vandals - If Not For You
TTITLE9=Puzzle Blues Band - Jail Bait
TTITLE10=Little Red Rooster - Give Me One Reason
TTITLE11=Route 66 - It's All Over Now
TTITLE12=unnysiders - I'd Rather Go Blind
TTITLE13=Kukac - Drifter's Wife
EXTD=
EXTT0=
EXTT1=
EXTT2=
EXTT3=
EXTT4=
EXTT5=
EXTT6=
EXTT7=
EXTT8=
EXTT9=
EXTT10=
EXTT11=
EXTT12=
EXTT13=
PLAYORDER=
